<svg width="1024" height="753" viewBox="0 0 1024 753" fill="none" xmlns="http://www.w3.org/2000/svg">
<g clip-path="url(#clip0_122_130)">
<rect width="1024" height="753" fill="#121214"/>
<g opacity="0.2" filter="url(#filter0_f_122_130)">
<ellipse cx="511.5" cy="34" rx="670.5" ry="350" fill="#B3A659"/>
</g>
<path d="M32.0349 270C33.5302 270 34.6622 270.63 35.4308 271.891C36.2134 273.138 36.6047 274.953 36.6047 277.336C36.6047 279.719 36.2134 281.541 35.4308 282.802C34.6622 284.063 33.5302 284.693 32.0349 284.693C30.5536 284.693 29.4216 284.063 28.639 282.802C27.8564 281.541 27.4651 279.719 27.4651 277.336C27.4651 274.967 27.8564 273.152 28.639 271.891C29.4216 270.63 30.5536 270 32.0349 270ZM28.9534 277.336C28.9534 279.026 29.1072 280.35 29.4146 281.306L34.0683 272.099C33.5791 271.448 32.9013 271.122 32.0349 271.122C31.0706 271.122 30.316 271.635 29.771 272.66C29.2259 273.672 28.9534 275.23 28.9534 277.336ZM32.0349 283.55C33.0131 283.55 33.7748 283.044 34.3198 282.033C34.8648 281.008 35.1373 279.442 35.1373 277.336C35.1373 275.549 34.9627 274.163 34.6133 273.18L29.9596 282.469C30.4627 283.19 31.1545 283.55 32.0349 283.55Z" fill="url(#paint0_linear_122_130)" fill-opacity="0.6"/>
<path d="M33.2926 307.135H36.3741V308.236H28.3874V307.135H31.9511V295.455L28.5551 297.471L27.9682 296.536L32.1607 293.959H33.2926V307.135Z" fill="url(#paint1_linear_122_130)" fill-opacity="0.6"/>
<path d="M32.0349 317.502C33.5302 317.502 34.6622 318.133 35.4308 319.393C36.2134 320.64 36.6047 322.455 36.6047 324.838C36.6047 327.221 36.2134 329.043 35.4308 330.304C34.6622 331.565 33.5302 332.195 32.0349 332.195C30.5536 332.195 29.4216 331.565 28.639 330.304C27.8564 329.043 27.4651 327.221 27.4651 324.838C27.4651 322.469 27.8564 320.654 28.639 319.393C29.4216 318.133 30.5536 317.502 32.0349 317.502ZM28.9534 324.838C28.9534 326.529 29.1072 327.852 29.4146 328.808L34.0683 319.601C33.5791 318.95 32.9013 318.624 32.0349 318.624C31.0706 318.624 30.316 319.137 29.771 320.162C29.2259 321.174 28.9534 322.732 28.9534 324.838ZM32.0349 331.052C33.0131 331.052 33.7748 330.546 34.3198 329.535C34.8648 328.51 35.1373 326.944 35.1373 324.838C35.1373 323.051 34.9627 321.665 34.6133 320.682L29.9596 329.971C30.4627 330.692 31.1545 331.052 32.0349 331.052Z" fill="url(#paint2_linear_122_130)" fill-opacity="0.6"/>
<path d="M33.2926 354.637H36.3741V355.738H28.3874V354.637H31.9511V342.957L28.5551 344.973L27.9682 344.038L32.1607 341.461H33.2926V354.637Z" fill="url(#paint3_linear_122_130)" fill-opacity="0.6"/>
<path d="M33.2926 378.388H36.3741V379.489H28.3874V378.388H31.9511V366.708L28.5551 368.724L27.9682 367.789L32.1607 365.212H33.2926V378.388Z" fill="url(#paint4_linear_122_130)" fill-opacity="0.6"/>
<path d="M32.0349 388.755C33.5302 388.755 34.6622 389.386 35.4308 390.646C36.2134 391.893 36.6047 393.708 36.6047 396.091C36.6047 398.474 36.2134 400.296 35.4308 401.557C34.6622 402.818 33.5302 403.448 32.0349 403.448C30.5536 403.448 29.4216 402.818 28.639 401.557C27.8564 400.296 27.4651 398.474 27.4651 396.091C27.4651 393.722 27.8564 391.907 28.639 390.646C29.4216 389.386 30.5536 388.755 32.0349 388.755ZM28.9534 396.091C28.9534 397.782 29.1072 399.105 29.4146 400.061L34.0683 390.854C33.5791 390.203 32.9013 389.878 32.0349 389.878C31.0706 389.878 30.316 390.39 29.771 391.415C29.2259 392.427 28.9534 393.985 28.9534 396.091ZM32.0349 402.305C33.0131 402.305 33.7748 401.8 34.3198 400.788C34.8648 399.763 35.1373 398.197 35.1373 396.091C35.1373 394.304 34.9627 392.919 34.6133 391.935L29.9596 401.225C30.4627 401.945 31.1545 402.305 32.0349 402.305Z" fill="url(#paint5_linear_122_130)" fill-opacity="0.6"/>
<path d="M33.2926 425.89H36.3741V426.992H28.3874V425.89H31.9511V414.21L28.5551 416.226L27.9682 415.291L32.1607 412.714H33.2926V425.89Z" fill="url(#paint6_linear_122_130)" fill-opacity="0.6"/>
<path d="M32.0349 436.257C33.5302 436.257 34.6622 436.888 35.4308 438.149C36.2134 439.396 36.6047 441.211 36.6047 443.594C36.6047 445.977 36.2134 447.798 35.4308 449.059C34.6622 450.32 33.5302 450.95 32.0349 450.95C30.5536 450.95 29.4216 450.32 28.639 449.059C27.8564 447.798 27.4651 445.977 27.4651 443.594C27.4651 441.224 27.8564 439.409 28.639 438.149C29.4216 436.888 30.5536 436.257 32.0349 436.257ZM28.9534 443.594C28.9534 445.284 29.1072 446.607 29.4146 447.563L34.0683 438.356C33.5791 437.705 32.9013 437.38 32.0349 437.38C31.0706 437.38 30.316 437.892 29.771 438.918C29.2259 439.929 28.9534 441.488 28.9534 443.594ZM32.0349 449.807C33.0131 449.807 33.7748 449.302 34.3198 448.29C34.8648 447.265 35.1373 445.699 35.1373 443.594C35.1373 441.806 34.9627 440.421 34.6133 439.437L29.9596 448.727C30.4627 449.447 31.1545 449.807 32.0349 449.807Z" fill="url(#paint7_linear_122_130)" fill-opacity="0.6"/>
<path d="M32.0349 460.008C33.5302 460.008 34.6622 460.639 35.4308 461.9C36.2134 463.147 36.6047 464.962 36.6047 467.345C36.6047 469.728 36.2134 471.549 35.4308 472.81C34.6622 474.071 33.5302 474.701 32.0349 474.701C30.5536 474.701 29.4216 474.071 28.639 472.81C27.8564 471.549 27.4651 469.728 27.4651 467.345C27.4651 464.975 27.8564 463.16 28.639 461.9C29.4216 460.639 30.5536 460.008 32.0349 460.008ZM28.9534 467.345C28.9534 469.035 29.1072 470.358 29.4146 471.314L34.0683 462.107C33.5791 461.456 32.9013 461.131 32.0349 461.131C31.0706 461.131 30.316 461.643 29.771 462.669C29.2259 463.68 28.9534 465.239 28.9534 467.345ZM32.0349 473.558C33.0131 473.558 33.7748 473.053 34.3198 472.041C34.8648 471.016 35.1373 469.451 35.1373 467.345C35.1373 465.557 34.9627 464.172 34.6133 463.188L29.9596 472.478C30.4627 473.198 31.1545 473.558 32.0349 473.558Z" fill="url(#paint8_linear_122_130)" fill-opacity="0.6"/>
<path d="M33.2926 497.143H36.3741V498.245H28.3874V497.143H31.9511V485.464L28.5551 487.48L27.9682 486.544L32.1607 483.967H33.2926V497.143Z" fill="url(#paint9_linear_122_130)" fill-opacity="0.6"/>
<path d="M32.0349 507.511C33.5302 507.511 34.6622 508.141 35.4308 509.402C36.2134 510.649 36.6047 512.464 36.6047 514.847C36.6047 517.23 36.2134 519.052 35.4308 520.312C34.6622 521.573 33.5302 522.204 32.0349 522.204C30.5536 522.204 29.4216 521.573 28.639 520.312C27.8564 519.052 27.4651 517.23 27.4651 514.847C27.4651 512.478 27.8564 510.663 28.639 509.402C29.4216 508.141 30.5536 507.511 32.0349 507.511ZM28.9534 514.847C28.9534 516.537 29.1072 517.86 29.4146 518.816L34.0683 509.61C33.5791 508.958 32.9013 508.633 32.0349 508.633C31.0706 508.633 30.316 509.145 29.771 510.171C29.2259 511.182 28.9534 512.741 28.9534 514.847ZM32.0349 521.061C33.0131 521.061 33.7748 520.555 34.3198 519.543C34.8648 518.518 35.1373 516.953 35.1373 514.847C35.1373 513.059 34.9627 511.674 34.6133 510.69L29.9596 519.98C30.4627 520.7 31.1545 521.061 32.0349 521.061Z" fill="url(#paint10_linear_122_130)" fill-opacity="0.6"/>
<path d="M33.2926 544.645H36.3741V545.747H28.3874V544.645H31.9511V532.966L28.5551 534.982L27.9682 534.046L32.1607 531.469H33.2926V544.645Z" fill="url(#paint11_linear_122_130)" fill-opacity="0.6"/>
<path d="M33.2926 568.396H36.3741V569.498H28.3874V568.396H31.9511V556.717L28.5551 558.733L27.9682 557.798L32.1607 555.221H33.2926V568.396Z" fill="url(#paint12_linear_122_130)" fill-opacity="0.6"/>
<path d="M70.9651 317.502C72.4604 317.502 73.5924 318.133 74.361 319.393C75.1436 320.64 75.5349 322.455 75.5349 324.838C75.5349 327.221 75.1436 329.043 74.361 330.304C73.5924 331.565 72.4604 332.195 70.9651 332.195C69.4838 332.195 68.3518 331.565 67.5692 330.304C66.7866 329.043 66.3953 327.221 66.3953 324.838C66.3953 322.469 66.7866 320.654 67.5692 319.393C68.3518 318.133 69.4838 317.502 70.9651 317.502ZM67.8836 324.838C67.8836 326.529 68.0374 327.852 68.3448 328.808L72.9985 319.601C72.5093 318.95 71.8315 318.624 70.9651 318.624C70.0008 318.624 69.2462 319.137 68.7012 320.162C68.1561 321.174 67.8836 322.732 67.8836 324.838ZM70.9651 331.052C71.9433 331.052 72.705 330.546 73.25 329.535C73.795 328.51 74.0675 326.944 74.0675 324.838C74.0675 323.051 73.8928 321.665 73.5435 320.682L68.8898 329.971C69.3929 330.692 70.0847 331.052 70.9651 331.052Z" fill="url(#paint13_linear_122_130)" fill-opacity="0.6"/>
<path d="M72.2228 354.637H75.3043V355.738H67.3176V354.637H70.8812V342.957L67.4853 344.973L66.8984 344.038L71.0909 341.461H72.2228V354.637Z" fill="url(#paint14_linear_122_130)" fill-opacity="0.6"/>
<path d="M70.9651 365.004C72.4604 365.004 73.5924 365.635 74.361 366.895C75.1436 368.142 75.5349 369.957 75.5349 372.34C75.5349 374.723 75.1436 376.545 74.361 377.806C73.5924 379.067 72.4604 379.697 70.9651 379.697C69.4838 379.697 68.3518 379.067 67.5692 377.806C66.7866 376.545 66.3953 374.723 66.3953 372.34C66.3953 369.971 66.7866 368.156 67.5692 366.895C68.3518 365.635 69.4838 365.004 70.9651 365.004ZM67.8836 372.34C67.8836 374.031 68.0374 375.354 68.3448 376.31L72.9985 367.103C72.5093 366.452 71.8315 366.126 70.9651 366.126C70.0008 366.126 69.2462 366.639 68.7012 367.664C68.1561 368.676 67.8836 370.234 67.8836 372.34ZM70.9651 378.554C71.9433 378.554 72.705 378.049 73.25 377.037C73.795 376.012 74.0675 374.446 74.0675 372.34C74.0675 370.553 73.8928 369.168 73.5435 368.184L68.8898 377.474C69.3929 378.194 70.0847 378.554 70.9651 378.554Z" fill="url(#paint15_linear_122_130)" fill-opacity="0.6"/>
<path d="M70.9651 388.755C72.4604 388.755 73.5924 389.386 74.361 390.646C75.1436 391.893 75.5349 393.708 75.5349 396.091C75.5349 398.474 75.1436 400.296 74.361 401.557C73.5924 402.818 72.4604 403.448 70.9651 403.448C69.4838 403.448 68.3518 402.818 67.5692 401.557C66.7866 400.296 66.3953 398.474 66.3953 396.091C66.3953 393.722 66.7866 391.907 67.5692 390.646C68.3518 389.386 69.4838 388.755 70.9651 388.755ZM67.8836 396.091C67.8836 397.782 68.0374 399.105 68.3448 400.061L72.9985 390.854C72.5093 390.203 71.8315 389.878 70.9651 389.878C70.0008 389.878 69.2462 390.39 68.7012 391.415C68.1561 392.427 67.8836 393.985 67.8836 396.091ZM70.9651 402.305C71.9433 402.305 72.705 401.8 73.25 400.788C73.795 399.763 74.0675 398.197 74.0675 396.091C74.0675 394.304 73.8928 392.919 73.5435 391.935L68.8898 401.225C69.3929 401.945 70.0847 402.305 70.9651 402.305Z" fill="url(#paint16_linear_122_130)" fill-opacity="0.6"/>
<path d="M72.2228 425.89H75.3043V426.992H67.3176V425.89H70.8812V414.21L67.4853 416.226L66.8984 415.291L71.0909 412.714H72.2228V425.89Z" fill="url(#paint17_linear_122_130)" fill-opacity="0.6"/>
<path d="M70.9651 436.257C72.4604 436.257 73.5924 436.888 74.361 438.149C75.1436 439.396 75.5349 441.211 75.5349 443.594C75.5349 445.977 75.1436 447.798 74.361 449.059C73.5924 450.32 72.4604 450.95 70.9651 450.95C69.4838 450.95 68.3518 450.32 67.5692 449.059C66.7866 447.798 66.3953 445.977 66.3953 443.594C66.3953 441.224 66.7866 439.409 67.5692 438.149C68.3518 436.888 69.4838 436.257 70.9651 436.257ZM67.8836 443.594C67.8836 445.284 68.0374 446.607 68.3448 447.563L72.9985 438.356C72.5093 437.705 71.8315 437.38 70.9651 437.38C70.0008 437.38 69.2462 437.892 68.7012 438.918C68.1561 439.929 67.8836 441.488 67.8836 443.594ZM70.9651 449.807C71.9433 449.807 72.705 449.302 73.25 448.29C73.795 447.265 74.0675 445.699 74.0675 443.594C74.0675 441.806 73.8928 440.421 73.5435 439.437L68.8898 448.727C69.3929 449.447 70.0847 449.807 70.9651 449.807Z" fill="url(#paint18_linear_122_130)" fill-opacity="0.6"/>
<path d="M72.2228 473.392H75.3043V474.494H67.3176V473.392H70.8812V461.713L67.4853 463.728L66.8984 462.793L71.0909 460.216H72.2228V473.392Z" fill="url(#paint19_linear_122_130)" fill-opacity="0.6"/>
<path d="M70.9651 483.76C72.4604 483.76 73.5924 484.39 74.361 485.651C75.1436 486.898 75.5349 488.713 75.5349 491.096C75.5349 493.479 75.1436 495.301 74.361 496.561C73.5924 497.822 72.4604 498.453 70.9651 498.453C69.4838 498.453 68.3518 497.822 67.5692 496.561C66.7866 495.301 66.3953 493.479 66.3953 491.096C66.3953 488.726 66.7866 486.911 67.5692 485.651C68.3518 484.39 69.4838 483.76 70.9651 483.76ZM67.8836 491.096C67.8836 492.786 68.0374 494.109 68.3448 495.065L72.9985 485.859C72.5093 485.207 71.8315 484.882 70.9651 484.882C70.0008 484.882 69.2462 485.394 68.7012 486.42C68.1561 487.431 67.8836 488.99 67.8836 491.096ZM70.9651 497.31C71.9433 497.31 72.705 496.804 73.25 495.792C73.795 494.767 74.0675 493.202 74.0675 491.096C74.0675 489.308 73.8928 487.923 73.5435 486.939L68.8898 496.229C69.3929 496.949 70.0847 497.31 70.9651 497.31Z" fill="url(#paint20_linear_122_130)" fill-opacity="0.6"/>
<path d="M70.9651 507.511C72.4604 507.511 73.5924 508.141 74.361 509.402C75.1436 510.649 75.5349 512.464 75.5349 514.847C75.5349 517.23 75.1436 519.052 74.361 520.312C73.5924 521.573 72.4604 522.204 70.9651 522.204C69.4838 522.204 68.3518 521.573 67.5692 520.312C66.7866 519.052 66.3953 517.23 66.3953 514.847C66.3953 512.478 66.7866 510.663 67.5692 509.402C68.3518 508.141 69.4838 507.511 70.9651 507.511ZM67.8836 514.847C67.8836 516.537 68.0374 517.86 68.3448 518.816L72.9985 509.61C72.5093 508.958 71.8315 508.633 70.9651 508.633C70.0008 508.633 69.2462 509.145 68.7012 510.171C68.1561 511.182 67.8836 512.741 67.8836 514.847ZM70.9651 521.061C71.9433 521.061 72.705 520.555 73.25 519.543C73.795 518.518 74.0675 516.953 74.0675 514.847C74.0675 513.059 73.8928 511.674 73.5435 510.69L68.8898 519.98C69.3929 520.7 70.0847 521.061 70.9651 521.061Z" fill="url(#paint21_linear_122_130)" fill-opacity="0.6"/>
<path d="M72.2228 544.645H75.3043V545.747H67.3176V544.645H70.8812V532.966L67.4853 534.982L66.8984 534.046L71.0909 531.469H72.2228V544.645Z" fill="url(#paint22_linear_122_130)" fill-opacity="0.6"/>
<path d="M70.9651 555.013C72.4604 555.013 73.5924 555.643 74.361 556.904C75.1436 558.151 75.5349 559.966 75.5349 562.349C75.5349 564.732 75.1436 566.554 74.361 567.815C73.5924 569.075 72.4604 569.706 70.9651 569.706C69.4838 569.706 68.3518 569.075 67.5692 567.815C66.7866 566.554 66.3953 564.732 66.3953 562.349C66.3953 559.98 66.7866 558.165 67.5692 556.904C68.3518 555.643 69.4838 555.013 70.9651 555.013ZM67.8836 562.349C67.8836 564.039 68.0374 565.362 68.3448 566.318L72.9985 557.112C72.5093 556.461 71.8315 556.135 70.9651 556.135C70.0008 556.135 69.2462 556.648 68.7012 557.673C68.1561 558.684 67.8836 560.243 67.8836 562.349ZM70.9651 568.563C71.9433 568.563 72.705 568.057 73.25 567.046C73.795 566.02 74.0675 564.455 74.0675 562.349C74.0675 560.562 73.8928 559.176 73.5435 558.192L68.8898 567.482C69.3929 568.202 70.0847 568.563 70.9651 568.563Z" fill="url(#paint23_linear_122_130)" fill-opacity="0.6"/>
<path d="M72.2228 592.148H75.3043V593.249H67.3176V592.148H70.8812V580.468L67.4853 582.484L66.8984 581.549L71.0909 578.972H72.2228V592.148Z" fill="url(#paint24_linear_122_130)" fill-opacity="0.6"/>
<path d="M72.2228 615.899H75.3043V617H67.3176V615.899H70.8812V604.219L67.4853 606.235L66.8984 605.3L71.0909 602.723H72.2228V615.899Z" fill="url(#paint25_linear_122_130)" fill-opacity="0.6"/>
<path d="M12.5698 341.253C14.0651 341.253 15.1971 341.884 15.9657 343.144C16.7483 344.391 17.1396 346.206 17.1396 348.589C17.1396 350.972 16.7483 352.794 15.9657 354.055C15.1971 355.316 14.0651 355.946 12.5698 355.946C11.0885 355.946 9.95649 355.316 9.1739 354.055C8.3913 352.794 8 350.972 8 348.589C8 346.22 8.3913 344.405 9.1739 343.144C9.95649 341.884 11.0885 341.253 12.5698 341.253ZM9.48833 348.589C9.48833 350.28 9.64206 351.603 9.9495 352.559L14.6032 343.352C14.114 342.701 13.4363 342.375 12.5698 342.375C11.6055 342.375 10.8509 342.888 10.3059 343.913C9.76084 344.925 9.48833 346.483 9.48833 348.589ZM12.5698 354.803C13.5481 354.803 14.3097 354.297 14.8547 353.286C15.3997 352.261 15.6722 350.695 15.6722 348.589C15.6722 346.802 15.4976 345.417 15.1482 344.433L10.4945 353.722C10.9976 354.443 11.6894 354.803 12.5698 354.803Z" fill="url(#paint26_linear_122_130)" fill-opacity="0.6"/>
<path d="M12.5698 365.004C14.0651 365.004 15.1971 365.635 15.9657 366.895C16.7483 368.142 17.1396 369.957 17.1396 372.34C17.1396 374.723 16.7483 376.545 15.9657 377.806C15.1971 379.067 14.0651 379.697 12.5698 379.697C11.0885 379.697 9.95649 379.067 9.1739 377.806C8.3913 376.545 8 374.723 8 372.34C8 369.971 8.3913 368.156 9.1739 366.895C9.95649 365.635 11.0885 365.004 12.5698 365.004ZM9.48833 372.34C9.48833 374.031 9.64206 375.354 9.9495 376.31L14.6032 367.103C14.114 366.452 13.4363 366.126 12.5698 366.126C11.6055 366.126 10.8509 366.639 10.3059 367.664C9.76084 368.676 9.48833 370.234 9.48833 372.34ZM12.5698 378.554C13.5481 378.554 14.3097 378.049 14.8547 377.037C15.3997 376.012 15.6722 374.446 15.6722 372.34C15.6722 370.553 15.4976 369.168 15.1482 368.184L10.4945 377.474C10.9976 378.194 11.6894 378.554 12.5698 378.554Z" fill="url(#paint27_linear_122_130)" fill-opacity="0.6"/>
<path d="M13.8276 402.139H16.909V403.24H8.92235V402.139H12.486V390.459L9.09005 392.475L8.5031 391.54L12.6956 388.963H13.8276V402.139Z" fill="url(#paint28_linear_122_130)" fill-opacity="0.6"/>
<path d="M12.5698 412.506C14.0651 412.506 15.1971 413.137 15.9657 414.398C16.7483 415.644 17.1396 417.459 17.1396 419.842C17.1396 422.225 16.7483 424.047 15.9657 425.308C15.1971 426.569 14.0651 427.199 12.5698 427.199C11.0885 427.199 9.95649 426.569 9.1739 425.308C8.3913 424.047 8 422.225 8 419.842C8 417.473 8.3913 415.658 9.1739 414.398C9.95649 413.137 11.0885 412.506 12.5698 412.506ZM9.48833 419.842C9.48833 421.533 9.64206 422.856 9.9495 423.812L14.6032 414.605C14.114 413.954 13.4363 413.629 12.5698 413.629C11.6055 413.629 10.8509 414.141 10.3059 415.166C9.76084 416.178 9.48833 417.737 9.48833 419.842ZM12.5698 426.056C13.5481 426.056 14.3097 425.551 14.8547 424.539C15.3997 423.514 15.6722 421.948 15.6722 419.842C15.6722 418.055 15.4976 416.67 15.1482 415.686L10.4945 424.976C10.9976 425.696 11.6894 426.056 12.5698 426.056Z" fill="url(#paint29_linear_122_130)" fill-opacity="0.6"/>
<path d="M13.8276 449.641H16.909V450.743H8.92235V449.641H12.486V437.962L9.09005 439.977L8.5031 439.042L12.6956 436.465H13.8276V449.641Z" fill="url(#paint30_linear_122_130)" fill-opacity="0.6"/>
<path d="M13.8276 473.392H16.909V474.494H8.92235V473.392H12.486V461.713L9.09005 463.728L8.5031 462.793L12.6956 460.216H13.8276V473.392Z" fill="url(#paint31_linear_122_130)" fill-opacity="0.6"/>
<path d="M52.7577 307.135H55.8392V308.236H47.8525V307.135H51.4162V295.455L48.0202 297.471L47.4333 296.536L51.6258 293.959H52.7577V307.135Z" fill="url(#paint32_linear_122_130)" fill-opacity="0.6"/>
<path d="M51.5 317.502C52.9953 317.502 54.1273 318.133 54.8959 319.393C55.6785 320.64 56.0698 322.455 56.0698 324.838C56.0698 327.221 55.6785 329.043 54.8959 330.304C54.1273 331.565 52.9953 332.195 51.5 332.195C50.0187 332.195 48.8867 331.565 48.1041 330.304C47.3215 329.043 46.9302 327.221 46.9302 324.838C46.9302 322.469 47.3215 320.654 48.1041 319.393C48.8867 318.133 50.0187 317.502 51.5 317.502ZM48.4185 324.838C48.4185 326.529 48.5723 327.852 48.8797 328.808L53.5334 319.601C53.0442 318.95 52.3664 318.624 51.5 318.624C50.5357 318.624 49.7811 319.137 49.2361 320.162C48.691 321.174 48.4185 322.732 48.4185 324.838ZM51.5 331.052C52.4782 331.052 53.2399 330.546 53.7849 329.535C54.3299 328.51 54.6024 326.944 54.6024 324.838C54.6024 323.051 54.4277 321.665 54.0784 320.682L49.4247 329.971C49.9278 330.692 50.6196 331.052 51.5 331.052Z" fill="url(#paint33_linear_122_130)" fill-opacity="0.6"/>
<path d="M52.7577 354.637H55.8392V355.738H47.8525V354.637H51.4162V342.957L48.0202 344.973L47.4333 344.038L51.6258 341.461H52.7577V354.637Z" fill="url(#paint34_linear_122_130)" fill-opacity="0.6"/>
<path d="M52.7577 378.388H55.8392V379.489H47.8525V378.388H51.4162V366.708L48.0202 368.724L47.4333 367.789L51.6258 365.212H52.7577V378.388Z" fill="url(#paint35_linear_122_130)" fill-opacity="0.6"/>
<path d="M51.5 388.755C52.9953 388.755 54.1273 389.386 54.8959 390.646C55.6785 391.893 56.0698 393.708 56.0698 396.091C56.0698 398.474 55.6785 400.296 54.8959 401.557C54.1273 402.818 52.9953 403.448 51.5 403.448C50.0187 403.448 48.8867 402.818 48.1041 401.557C47.3215 400.296 46.9302 398.474 46.9302 396.091C46.9302 393.722 47.3215 391.907 48.1041 390.646C48.8867 389.386 50.0187 388.755 51.5 388.755ZM48.4185 396.091C48.4185 397.782 48.5723 399.105 48.8797 400.061L53.5334 390.854C53.0442 390.203 52.3664 389.878 51.5 389.878C50.5357 389.878 49.7811 390.39 49.2361 391.415C48.691 392.427 48.4185 393.985 48.4185 396.091ZM51.5 402.305C52.4782 402.305 53.2399 401.8 53.7849 400.788C54.3299 399.763 54.6024 398.197 54.6024 396.091C54.6024 394.304 54.4277 392.919 54.0784 391.935L49.4247 401.225C49.9278 401.945 50.6196 402.305 51.5 402.305Z" fill="url(#paint36_linear_122_130)" fill-opacity="0.6"/>
<path d="M52.7577 425.89H55.8392V426.992H47.8525V425.89H51.4162V414.21L48.0202 416.226L47.4333 415.291L51.6258 412.714H52.7577V425.89Z" fill="url(#paint37_linear_122_130)" fill-opacity="0.6"/>
<path d="M52.7577 449.641H55.8392V450.743H47.8525V449.641H51.4162V437.962L48.0202 439.977L47.4333 439.042L51.6258 436.465H52.7577V449.641Z" fill="url(#paint38_linear_122_130)" fill-opacity="0.6"/>
<path d="M51.5 460.008C52.9953 460.008 54.1273 460.639 54.8959 461.9C55.6785 463.147 56.0698 464.962 56.0698 467.345C56.0698 469.728 55.6785 471.549 54.8959 472.81C54.1273 474.071 52.9953 474.701 51.5 474.701C50.0187 474.701 48.8867 474.071 48.1041 472.81C47.3215 471.549 46.9302 469.728 46.9302 467.345C46.9302 464.975 47.3215 463.16 48.1041 461.9C48.8867 460.639 50.0187 460.008 51.5 460.008ZM48.4185 467.345C48.4185 469.035 48.5723 470.358 48.8797 471.314L53.5334 462.107C53.0442 461.456 52.3664 461.131 51.5 461.131C50.5357 461.131 49.7811 461.643 49.2361 462.669C48.691 463.68 48.4185 465.239 48.4185 467.345ZM51.5 473.558C52.4782 473.558 53.2399 473.053 53.7849 472.041C54.3299 471.016 54.6024 469.451 54.6024 467.345C54.6024 465.557 54.4277 464.172 54.0784 463.188L49.4247 472.478C49.9278 473.198 50.6196 473.558 51.5 473.558Z" fill="url(#paint39_linear_122_130)" fill-opacity="0.6"/>
<path d="M52.7577 497.143H55.8392V498.245H47.8525V497.143H51.4162V485.464L48.0202 487.48L47.4333 486.544L51.6258 483.967H52.7577V497.143Z" fill="url(#paint40_linear_122_130)" fill-opacity="0.6"/>
<path d="M51.5 507.511C52.9953 507.511 54.1273 508.141 54.8959 509.402C55.6785 510.649 56.0698 512.464 56.0698 514.847C56.0698 517.23 55.6785 519.052 54.8959 520.312C54.1273 521.573 52.9953 522.204 51.5 522.204C50.0187 522.204 48.8867 521.573 48.1041 520.312C47.3215 519.052 46.9302 517.23 46.9302 514.847C46.9302 512.478 47.3215 510.663 48.1041 509.402C48.8867 508.141 50.0187 507.511 51.5 507.511ZM48.4185 514.847C48.4185 516.537 48.5723 517.86 48.8797 518.816L53.5334 509.61C53.0442 508.958 52.3664 508.633 51.5 508.633C50.5357 508.633 49.7811 509.145 49.2361 510.171C48.691 511.182 48.4185 512.741 48.4185 514.847ZM51.5 521.061C52.4782 521.061 53.2399 520.555 53.7849 519.543C54.3299 518.518 54.6024 516.953 54.6024 514.847C54.6024 513.059 54.4277 511.674 54.0784 510.69L49.4247 519.98C49.9278 520.7 50.6196 521.061 51.5 521.061Z" fill="url(#paint41_linear_122_130)" fill-opacity="0.6"/>
<path d="M90.4302 293.751C91.9255 293.751 93.0575 294.381 93.8261 295.642C94.6087 296.889 95 298.704 95 301.087C95 303.47 94.6087 305.292 93.8261 306.553C93.0575 307.814 91.9255 308.444 90.4302 308.444C88.9489 308.444 87.8169 307.814 87.0343 306.553C86.2517 305.292 85.8604 303.47 85.8604 301.087C85.8604 298.718 86.2517 296.903 87.0343 295.642C87.8169 294.381 88.9489 293.751 90.4302 293.751ZM87.3487 301.087C87.3487 302.777 87.5024 304.101 87.8099 305.057L92.4636 295.85C91.9744 295.199 91.2966 294.873 90.4302 294.873C89.4659 294.873 88.7113 295.386 88.1663 296.411C87.6212 297.423 87.3487 298.981 87.3487 301.087ZM90.4302 307.301C91.4084 307.301 92.1701 306.795 92.7151 305.784C93.2601 304.759 93.5326 303.193 93.5326 301.087C93.5326 299.3 93.3579 297.914 93.0086 296.931L88.3549 306.22C88.858 306.941 89.5498 307.301 90.4302 307.301Z" fill="url(#paint42_linear_122_130)" fill-opacity="0.6"/>
<path d="M91.6879 330.886H94.7694V331.987H86.7827V330.886H90.3463V319.206L86.9504 321.222L86.3635 320.287L90.556 317.71H91.6879V330.886Z" fill="url(#paint43_linear_122_130)" fill-opacity="0.6"/>
<path d="M91.6879 354.637H94.7694V355.738H86.7827V354.637H90.3463V342.957L86.9504 344.973L86.3635 344.038L90.556 341.461H91.6879V354.637Z" fill="url(#paint44_linear_122_130)" fill-opacity="0.6"/>
<path d="M90.4302 365.004C91.9255 365.004 93.0575 365.635 93.8261 366.895C94.6087 368.142 95 369.957 95 372.34C95 374.723 94.6087 376.545 93.8261 377.806C93.0575 379.067 91.9255 379.697 90.4302 379.697C88.9489 379.697 87.8169 379.067 87.0343 377.806C86.2517 376.545 85.8604 374.723 85.8604 372.34C85.8604 369.971 86.2517 368.156 87.0343 366.895C87.8169 365.635 88.9489 365.004 90.4302 365.004ZM87.3487 372.34C87.3487 374.031 87.5024 375.354 87.8099 376.31L92.4636 367.103C91.9744 366.452 91.2966 366.126 90.4302 366.126C89.4659 366.126 88.7113 366.639 88.1663 367.664C87.6212 368.676 87.3487 370.234 87.3487 372.34ZM90.4302 378.554C91.4084 378.554 92.1701 378.049 92.7151 377.037C93.2601 376.012 93.5326 374.446 93.5326 372.34C93.5326 370.553 93.3579 369.168 93.0086 368.184L88.3549 377.474C88.858 378.194 89.5498 378.554 90.4302 378.554Z" fill="url(#paint45_linear_122_130)" fill-opacity="0.6"/>
<path d="M90.4302 388.755C91.9255 388.755 93.0575 389.386 93.8261 390.646C94.6087 391.893 95 393.708 95 396.091C95 398.474 94.6087 400.296 93.8261 401.557C93.0575 402.818 91.9255 403.448 90.4302 403.448C88.9489 403.448 87.8169 402.818 87.0343 401.557C86.2517 400.296 85.8604 398.474 85.8604 396.091C85.8604 393.722 86.2517 391.907 87.0343 390.646C87.8169 389.386 88.9489 388.755 90.4302 388.755ZM87.3487 396.091C87.3487 397.782 87.5024 399.105 87.8099 400.061L92.4636 390.854C91.9744 390.203 91.2966 389.878 90.4302 389.878C89.4659 389.878 88.7113 390.39 88.1663 391.415C87.6212 392.427 87.3487 393.985 87.3487 396.091ZM90.4302 402.305C91.4084 402.305 92.1701 401.8 92.7151 400.788C93.2601 399.763 93.5326 398.197 93.5326 396.091C93.5326 394.304 93.3579 392.919 93.0086 391.935L88.3549 401.225C88.858 401.945 89.5498 402.305 90.4302 402.305Z" fill="url(#paint46_linear_122_130)" fill-opacity="0.6"/>
<g opacity="0.6">
<path d="M918.93 -30C920.356 -30 921.436 -29.395 922.17 -28.1851C922.916 -26.9885 923.29 -25.2468 923.29 -22.9599C923.29 -20.673 922.916 -18.9246 922.17 -17.7147C921.436 -16.5048 920.356 -15.8998 918.93 -15.8998C917.517 -15.8998 916.437 -16.5048 915.69 -17.7147C914.943 -18.9246 914.57 -20.673 914.57 -22.9599C914.57 -25.2335 914.943 -26.9752 915.69 -28.1851C916.437 -29.395 917.517 -30 918.93 -30ZM915.99 -22.9599C915.99 -21.3378 916.137 -20.068 916.43 -19.1506L920.87 -27.9857C920.403 -28.6106 919.756 -28.923 918.93 -28.923C918.01 -28.923 917.29 -28.4311 916.77 -27.4472C916.25 -26.4766 915.99 -24.9808 915.99 -22.9599ZM918.93 -16.9967C919.863 -16.9967 920.59 -17.482 921.11 -18.4526C921.63 -19.4365 921.89 -20.9389 921.89 -22.9599C921.89 -24.675 921.723 -26.0046 921.39 -26.9486L916.95 -18.0338C917.43 -17.3424 918.09 -16.9967 918.93 -16.9967Z" fill="url(#paint47_linear_122_130)"/>
<path d="M920.13 5.63655H923.07V6.69356H915.45V5.63655H918.85V-5.57181L915.61 -3.63727L915.05 -4.53474L919.05 -7.00776H920.13V5.63655Z" fill="url(#paint48_linear_122_130)"/>
<path d="M918.93 15.5856C920.356 15.5856 921.436 16.1906 922.17 17.4005C922.916 18.5971 923.29 20.3389 923.29 22.6257C923.29 24.9126 922.916 26.661 922.17 27.8709C921.436 29.0808 920.356 29.6858 918.93 29.6858C917.517 29.6858 916.437 29.0808 915.69 27.8709C914.943 26.661 914.57 24.9126 914.57 22.6257C914.57 20.3522 914.943 18.6104 915.69 17.4005C916.437 16.1906 917.517 15.5856 918.93 15.5856ZM915.99 22.6257C915.99 24.2478 916.137 25.5176 916.43 26.435L920.87 17.5999C920.403 16.975 919.756 16.6626 918.93 16.6626C918.01 16.6626 917.29 17.1545 916.77 18.1384C916.25 19.109 915.99 20.6048 915.99 22.6257ZM918.93 28.5889C919.863 28.5889 920.59 28.1036 921.11 27.133C921.63 26.1491 921.89 24.6467 921.89 22.6257C921.89 20.9106 921.723 19.581 921.39 18.637L916.95 27.5518C917.43 28.2432 918.09 28.5889 918.93 28.5889Z" fill="url(#paint49_linear_122_130)"/>
<path d="M920.13 51.2221H923.07V52.2792H915.45V51.2221H918.85V40.0138L915.61 41.9483L915.05 41.0509L919.05 38.5778H920.13V51.2221Z" fill="url(#paint50_linear_122_130)"/>
<path d="M920.13 74.015H923.07V75.072H915.45V74.015H918.85V62.8066L915.61 64.7411L915.05 63.8437L919.05 61.3706H920.13V74.015Z" fill="url(#paint51_linear_122_130)"/>
<path d="M918.93 83.964C920.356 83.964 921.436 84.569 922.17 85.7789C922.916 86.9755 923.29 88.7173 923.29 91.0041C923.29 93.291 922.916 95.0394 922.17 96.2493C921.436 97.4593 920.356 98.0642 918.93 98.0642C917.517 98.0642 916.437 97.4593 915.69 96.2493C914.943 95.0394 914.57 93.291 914.57 91.0041C914.57 88.7306 914.943 86.9888 915.69 85.7789C916.437 84.569 917.517 83.964 918.93 83.964ZM915.99 91.0041C915.99 92.6262 916.137 93.896 916.43 94.8134L920.87 85.9783C920.403 85.3534 919.756 85.041 918.93 85.041C918.01 85.041 917.29 85.5329 916.77 86.5168C916.25 87.4874 915.99 88.9832 915.99 91.0041ZM918.93 96.9673C919.863 96.9673 920.59 96.482 921.11 95.5114C921.63 94.5275 921.89 93.0251 921.89 91.0041C921.89 89.289 921.723 87.9594 921.39 87.0154L916.95 95.9302C917.43 96.6216 918.09 96.9673 918.93 96.9673Z" fill="url(#paint52_linear_122_130)"/>
<path d="M920.13 119.601H923.07V120.658H915.45V119.601H918.85V108.392L915.61 110.327L915.05 109.429L919.05 106.956H920.13V119.601Z" fill="url(#paint53_linear_122_130)"/>
<path d="M918.93 129.55C920.356 129.55 921.436 130.155 922.17 131.365C922.916 132.561 923.29 134.303 923.29 136.59C923.29 138.877 922.916 140.625 922.17 141.835C921.436 143.045 920.356 143.65 918.93 143.65C917.517 143.65 916.437 143.045 915.69 141.835C914.943 140.625 914.57 138.877 914.57 136.59C914.57 134.316 914.943 132.574 915.69 131.365C916.437 130.155 917.517 129.55 918.93 129.55ZM915.99 136.59C915.99 138.212 916.137 139.482 916.43 140.399L920.87 131.564C920.403 130.939 919.756 130.627 918.93 130.627C918.01 130.627 917.29 131.119 916.77 132.102C916.25 133.073 915.99 134.569 915.99 136.59ZM918.93 142.553C919.863 142.553 920.59 142.068 921.11 141.097C921.63 140.113 921.89 138.611 921.89 136.59C921.89 134.875 921.723 133.545 921.39 132.601L916.95 141.516C917.43 142.207 918.09 142.553 918.93 142.553Z" fill="url(#paint54_linear_122_130)"/>
<path d="M918.93 152.342C920.356 152.342 921.436 152.947 922.17 154.157C922.916 155.354 923.29 157.096 923.29 159.383C923.29 161.669 922.916 163.418 922.17 164.628C921.436 165.838 920.356 166.443 918.93 166.443C917.517 166.443 916.437 165.838 915.69 164.628C914.943 163.418 914.57 161.669 914.57 159.383C914.57 157.109 914.943 155.367 915.69 154.157C916.437 152.947 917.517 152.342 918.93 152.342ZM915.99 159.383C915.99 161.005 916.137 162.274 916.43 163.192L920.87 154.357C920.403 153.732 919.756 153.419 918.93 153.419C918.01 153.419 917.29 153.911 916.77 154.895C916.25 155.866 915.99 157.362 915.99 159.383ZM918.93 165.346C919.863 165.346 920.59 164.86 921.11 163.89C921.63 162.906 921.89 161.404 921.89 159.383C921.89 157.667 921.723 156.338 921.39 155.394L916.95 164.309C917.43 165 918.09 165.346 918.93 165.346Z" fill="url(#paint55_linear_122_130)"/>
<path d="M920.13 187.979H923.07V189.036H915.45V187.979H918.85V176.771L915.61 178.705L915.05 177.808L919.05 175.335H920.13V187.979Z" fill="url(#paint56_linear_122_130)"/>
<path d="M918.93 197.928C920.356 197.928 921.436 198.533 922.17 199.743C922.916 200.94 923.29 202.681 923.29 204.968C923.29 207.255 922.916 209.003 922.17 210.213C921.436 211.423 920.356 212.028 918.93 212.028C917.517 212.028 916.437 211.423 915.69 210.213C914.943 209.003 914.57 207.255 914.57 204.968C914.57 202.695 914.943 200.953 915.69 199.743C916.437 198.533 917.517 197.928 918.93 197.928ZM915.99 204.968C915.99 206.59 916.137 207.86 916.43 208.777L920.87 199.942C920.403 199.317 919.756 199.005 918.93 199.005C918.01 199.005 917.29 199.497 916.77 200.481C916.25 201.451 915.99 202.947 915.99 204.968ZM918.93 210.931C919.863 210.931 920.59 210.446 921.11 209.475C921.63 208.492 921.89 206.989 921.89 204.968C921.89 203.253 921.723 201.923 921.39 200.979L916.95 209.894C917.43 210.586 918.09 210.931 918.93 210.931Z" fill="url(#paint57_linear_122_130)"/>
<path d="M920.13 233.565H923.07V234.622H915.45V233.565H918.85V222.356L915.61 224.291L915.05 223.393L919.05 220.92H920.13V233.565Z" fill="url(#paint58_linear_122_130)"/>
<path d="M920.13 256.357H923.07V257.414H915.45V256.357H918.85V245.149L915.61 247.084L915.05 246.186L919.05 243.713H920.13V256.357Z" fill="url(#paint59_linear_122_130)"/>
<path d="M956.07 15.5856C957.497 15.5856 958.577 16.1906 959.31 17.4005C960.057 18.5971 960.43 20.3389 960.43 22.6257C960.43 24.9126 960.057 26.661 959.31 27.8709C958.577 29.0808 957.497 29.6858 956.07 29.6858C954.657 29.6858 953.577 29.0808 952.83 27.8709C952.084 26.661 951.71 24.9126 951.71 22.6257C951.71 20.3522 952.084 18.6104 952.83 17.4005C953.577 16.1906 954.657 15.5856 956.07 15.5856ZM953.13 22.6257C953.13 24.2478 953.277 25.5176 953.57 26.435L958.01 17.5999C957.543 16.975 956.897 16.6626 956.07 16.6626C955.15 16.6626 954.43 17.1545 953.91 18.1384C953.39 19.109 953.13 20.6048 953.13 22.6257ZM956.07 28.5889C957.003 28.5889 957.73 28.1036 958.25 27.133C958.77 26.1491 959.03 24.6467 959.03 22.6257C959.03 20.9106 958.863 19.581 958.53 18.637L954.09 27.5518C954.57 28.2432 955.23 28.5889 956.07 28.5889Z" fill="url(#paint60_linear_122_130)"/>
<path d="M957.27 51.2221H960.21V52.2792H952.59V51.2221H955.99V40.0138L952.75 41.9483L952.19 41.0509L956.19 38.5778H957.27V51.2221Z" fill="url(#paint61_linear_122_130)"/>
<path d="M956.07 61.1712C957.497 61.1712 958.577 61.7762 959.31 62.9861C960.057 64.1827 960.43 65.9245 960.43 68.2113C960.43 70.4982 960.057 72.2466 959.31 73.4565C958.577 74.6664 957.497 75.2714 956.07 75.2714C954.657 75.2714 953.577 74.6664 952.83 73.4565C952.084 72.2466 951.71 70.4982 951.71 68.2113C951.71 65.9378 952.084 64.196 952.83 62.9861C953.577 61.7762 954.657 61.1712 956.07 61.1712ZM953.13 68.2113C953.13 69.8334 953.277 71.1032 953.57 72.0206L958.01 63.1855C957.543 62.5606 956.897 62.2482 956.07 62.2482C955.15 62.2482 954.43 62.7401 953.91 63.724C953.39 64.6946 953.13 66.1904 953.13 68.2113ZM956.07 74.1745C957.003 74.1745 957.73 73.6892 958.25 72.7186C958.77 71.7347 959.03 70.2323 959.03 68.2113C959.03 66.4962 958.863 65.1666 958.53 64.2226L954.09 73.1374C954.57 73.8288 955.23 74.1745 956.07 74.1745Z" fill="url(#paint62_linear_122_130)"/>
<path d="M956.07 83.964C957.497 83.964 958.577 84.569 959.31 85.7789C960.057 86.9755 960.43 88.7173 960.43 91.0041C960.43 93.291 960.057 95.0394 959.31 96.2493C958.577 97.4593 957.497 98.0642 956.07 98.0642C954.657 98.0642 953.577 97.4593 952.83 96.2493C952.084 95.0394 951.71 93.291 951.71 91.0041C951.71 88.7306 952.084 86.9888 952.83 85.7789C953.577 84.569 954.657 83.964 956.07 83.964ZM953.13 91.0041C953.13 92.6262 953.277 93.896 953.57 94.8134L958.01 85.9783C957.543 85.3534 956.897 85.041 956.07 85.041C955.15 85.041 954.43 85.5329 953.91 86.5168C953.39 87.4874 953.13 88.9832 953.13 91.0041ZM956.07 96.9673C957.003 96.9673 957.73 96.482 958.25 95.5114C958.77 94.5275 959.03 93.0251 959.03 91.0041C959.03 89.289 958.863 87.9594 958.53 87.0154L954.09 95.9302C954.57 96.6216 955.23 96.9673 956.07 96.9673Z" fill="url(#paint63_linear_122_130)"/>
<path d="M957.27 119.601H960.21V120.658H952.59V119.601H955.99V108.392L952.75 110.327L952.19 109.429L956.19 106.956H957.27V119.601Z" fill="url(#paint64_linear_122_130)"/>
<path d="M956.07 129.55C957.497 129.55 958.577 130.155 959.31 131.365C960.057 132.561 960.43 134.303 960.43 136.59C960.43 138.877 960.057 140.625 959.31 141.835C958.577 143.045 957.497 143.65 956.07 143.65C954.657 143.65 953.577 143.045 952.83 141.835C952.084 140.625 951.71 138.877 951.71 136.59C951.71 134.316 952.084 132.574 952.83 131.365C953.577 130.155 954.657 129.55 956.07 129.55ZM953.13 136.59C953.13 138.212 953.277 139.482 953.57 140.399L958.01 131.564C957.543 130.939 956.897 130.627 956.07 130.627C955.15 130.627 954.43 131.119 953.91 132.102C953.39 133.073 953.13 134.569 953.13 136.59ZM956.07 142.553C957.003 142.553 957.73 142.068 958.25 141.097C958.77 140.113 959.03 138.611 959.03 136.59C959.03 134.875 958.863 133.545 958.53 132.601L954.09 141.516C954.57 142.207 955.23 142.553 956.07 142.553Z" fill="url(#paint65_linear_122_130)"/>
<path d="M957.27 165.186H960.21V166.243H952.59V165.186H955.99V153.978L952.75 155.912L952.19 155.015L956.19 152.542H957.27V165.186Z" fill="url(#paint66_linear_122_130)"/>
<path d="M956.07 175.135C957.497 175.135 958.577 175.74 959.31 176.95C960.057 178.147 960.43 179.888 960.43 182.175C960.43 184.462 960.057 186.211 959.31 187.421C958.577 188.63 957.497 189.235 956.07 189.235C954.657 189.235 953.577 188.63 952.83 187.421C952.084 186.211 951.71 184.462 951.71 182.175C951.71 179.902 952.084 178.16 952.83 176.95C953.577 175.74 954.657 175.135 956.07 175.135ZM953.13 182.175C953.13 183.797 953.277 185.067 953.57 185.985L958.01 177.15C957.543 176.525 956.897 176.212 956.07 176.212C955.15 176.212 954.43 176.704 953.91 177.688C953.39 178.659 953.13 180.154 953.13 182.175ZM956.07 188.139C957.003 188.139 957.73 187.653 958.25 186.683C958.77 185.699 959.03 184.196 959.03 182.175C959.03 180.46 958.863 179.131 958.53 178.187L954.09 187.101C954.57 187.793 955.23 188.139 956.07 188.139Z" fill="url(#paint67_linear_122_130)"/>
<path d="M956.07 197.928C957.497 197.928 958.577 198.533 959.31 199.743C960.057 200.94 960.43 202.681 960.43 204.968C960.43 207.255 960.057 209.003 959.31 210.213C958.577 211.423 957.497 212.028 956.07 212.028C954.657 212.028 953.577 211.423 952.83 210.213C952.084 209.003 951.71 207.255 951.71 204.968C951.71 202.695 952.084 200.953 952.83 199.743C953.577 198.533 954.657 197.928 956.07 197.928ZM953.13 204.968C953.13 206.59 953.277 207.86 953.57 208.777L958.01 199.942C957.543 199.317 956.897 199.005 956.07 199.005C955.15 199.005 954.43 199.497 953.91 200.481C953.39 201.451 953.13 202.947 953.13 204.968ZM956.07 210.931C957.003 210.931 957.73 210.446 958.25 209.475C958.77 208.492 959.03 206.989 959.03 204.968C959.03 203.253 958.863 201.923 958.53 200.979L954.09 209.894C954.57 210.586 955.23 210.931 956.07 210.931Z" fill="url(#paint68_linear_122_130)"/>
<path d="M957.27 233.565H960.21V234.622H952.59V233.565H955.99V222.356L952.75 224.291L952.19 223.393L956.19 220.92H957.27V233.565Z" fill="url(#paint69_linear_122_130)"/>
<path d="M956.07 243.514C957.497 243.514 958.577 244.119 959.31 245.329C960.057 246.525 960.43 248.267 960.43 250.554C960.43 252.841 960.057 254.589 959.31 255.799C958.577 257.009 957.497 257.614 956.07 257.614C954.657 257.614 953.577 257.009 952.83 255.799C952.084 254.589 951.71 252.841 951.71 250.554C951.71 248.28 952.084 246.538 952.83 245.329C953.577 244.119 954.657 243.514 956.07 243.514ZM953.13 250.554C953.13 252.176 953.277 253.446 953.57 254.363L958.01 245.528C957.543 244.903 956.897 244.591 956.07 244.591C955.15 244.591 954.43 245.083 953.91 246.066C953.39 247.037 953.13 248.533 953.13 250.554ZM956.07 256.517C957.003 256.517 957.73 256.032 958.25 255.061C958.77 254.077 959.03 252.575 959.03 250.554C959.03 248.839 958.863 247.509 958.53 246.565L954.09 255.48C954.57 256.171 955.23 256.517 956.07 256.517Z" fill="url(#paint70_linear_122_130)"/>
<path d="M957.27 279.15H960.21V280.207H952.59V279.15H955.99V267.942L952.75 269.876L952.19 268.979L956.19 266.506H957.27V279.15Z" fill="url(#paint71_linear_122_130)"/>
<path d="M957.27 301.943H960.21V303H952.59V301.943H955.99V290.735L952.75 292.669L952.19 291.772L956.19 289.299H957.27V301.943Z" fill="url(#paint72_linear_122_130)"/>
<path d="M900.36 38.3784C901.786 38.3784 902.866 38.9834 903.599 40.1933C904.346 41.3899 904.719 43.1317 904.719 45.4185C904.719 47.7054 904.346 49.4538 903.599 50.6637C902.866 51.8736 901.786 52.4786 900.36 52.4786C898.946 52.4786 897.867 51.8736 897.12 50.6637C896.373 49.4538 896 47.7054 896 45.4185C896 43.145 896.373 41.4032 897.12 40.1933C897.867 38.9834 898.946 38.3784 900.36 38.3784ZM897.42 45.4185C897.42 47.0406 897.567 48.3104 897.86 49.2278L902.3 40.3927C901.833 39.7678 901.186 39.4554 900.36 39.4554C899.44 39.4554 898.72 39.9473 898.2 40.9312C897.68 41.9018 897.42 43.3976 897.42 45.4185ZM900.36 51.3817C901.293 51.3817 902.02 50.8964 902.54 49.9258C903.06 48.9419 903.319 47.4395 903.319 45.4185C903.319 43.7034 903.153 42.3738 902.82 41.4298L898.38 50.3446C898.86 51.036 899.52 51.3817 900.36 51.3817Z" fill="url(#paint73_linear_122_130)"/>
<path d="M900.36 61.1712C901.786 61.1712 902.866 61.7762 903.599 62.9861C904.346 64.1827 904.719 65.9245 904.719 68.2113C904.719 70.4982 904.346 72.2466 903.599 73.4565C902.866 74.6664 901.786 75.2714 900.36 75.2714C898.946 75.2714 897.867 74.6664 897.12 73.4565C896.373 72.2466 896 70.4982 896 68.2113C896 65.9378 896.373 64.196 897.12 62.9861C897.867 61.7762 898.946 61.1712 900.36 61.1712ZM897.42 68.2113C897.42 69.8334 897.567 71.1032 897.86 72.0206L902.3 63.1855C901.833 62.5606 901.186 62.2482 900.36 62.2482C899.44 62.2482 898.72 62.7401 898.2 63.724C897.68 64.6946 897.42 66.1904 897.42 68.2113ZM900.36 74.1745C901.293 74.1745 902.02 73.6892 902.54 72.7186C903.06 71.7347 903.319 70.2323 903.319 68.2113C903.319 66.4962 903.153 65.1666 902.82 64.2226L898.38 73.1374C898.86 73.8288 899.52 74.1745 900.36 74.1745Z" fill="url(#paint74_linear_122_130)"/>
<path d="M901.56 96.8078H904.499V97.8648H896.88V96.8078H900.28V85.5994L897.04 87.5339L896.48 86.6365L900.48 84.1635H901.56V96.8078Z" fill="url(#paint75_linear_122_130)"/>
<path d="M900.36 106.757C901.786 106.757 902.866 107.362 903.599 108.572C904.346 109.768 904.719 111.51 904.719 113.797C904.719 116.084 904.346 117.832 903.599 119.042C902.866 120.252 901.786 120.857 900.36 120.857C898.946 120.857 897.867 120.252 897.12 119.042C896.373 117.832 896 116.084 896 113.797C896 111.523 896.373 109.782 897.12 108.572C897.867 107.362 898.946 106.757 900.36 106.757ZM897.42 113.797C897.42 115.419 897.567 116.689 897.86 117.606L902.3 108.771C901.833 108.146 901.186 107.834 900.36 107.834C899.44 107.834 898.72 108.326 898.2 109.31C897.68 110.28 897.42 111.776 897.42 113.797ZM900.36 119.76C901.293 119.76 902.02 119.275 902.54 118.304C903.06 117.32 903.319 115.818 903.319 113.797C903.319 112.082 903.153 110.752 902.82 109.808L898.38 118.723C898.86 119.414 899.52 119.76 900.36 119.76Z" fill="url(#paint76_linear_122_130)"/>
<path d="M901.56 142.393H904.499V143.45H896.88V142.393H900.28V131.185L897.04 133.12L896.48 132.222L900.48 129.749H901.56V142.393Z" fill="url(#paint77_linear_122_130)"/>
<path d="M901.56 165.186H904.499V166.243H896.88V165.186H900.28V153.978L897.04 155.912L896.48 155.015L900.48 152.542H901.56V165.186Z" fill="url(#paint78_linear_122_130)"/>
<path d="M938.7 5.63655H941.64V6.69356H934.02V5.63655H937.42V-5.57181L934.18 -3.63727L933.62 -4.53474L937.62 -7.00776H938.7V5.63655Z" fill="url(#paint79_linear_122_130)"/>
<path d="M937.5 15.5856C938.927 15.5856 940.006 16.1906 940.74 17.4005C941.486 18.5971 941.86 20.3389 941.86 22.6257C941.86 24.9126 941.486 26.661 940.74 27.8709C940.006 29.0808 938.927 29.6858 937.5 29.6858C936.087 29.6858 935.007 29.0808 934.26 27.8709C933.514 26.661 933.14 24.9126 933.14 22.6257C933.14 20.3522 933.514 18.6104 934.26 17.4005C935.007 16.1906 936.087 15.5856 937.5 15.5856ZM934.56 22.6257C934.56 24.2478 934.707 25.5176 935 26.435L939.44 17.5999C938.973 16.975 938.327 16.6626 937.5 16.6626C936.58 16.6626 935.86 17.1545 935.34 18.1384C934.82 19.109 934.56 20.6048 934.56 22.6257ZM937.5 28.5889C938.433 28.5889 939.16 28.1036 939.68 27.133C940.2 26.1491 940.46 24.6467 940.46 22.6257C940.46 20.9106 940.293 19.581 939.96 18.637L935.52 27.5518C936 28.2432 936.66 28.5889 937.5 28.5889Z" fill="url(#paint80_linear_122_130)"/>
<path d="M938.7 51.2221H941.64V52.2792H934.02V51.2221H937.42V40.0138L934.18 41.9483L933.62 41.0509L937.62 38.5778H938.7V51.2221Z" fill="url(#paint81_linear_122_130)"/>
<path d="M938.7 74.015H941.64V75.072H934.02V74.015H937.42V62.8066L934.18 64.7411L933.62 63.8437L937.62 61.3706H938.7V74.015Z" fill="url(#paint82_linear_122_130)"/>
<path d="M937.5 83.964C938.927 83.964 940.006 84.569 940.74 85.7789C941.486 86.9755 941.86 88.7173 941.86 91.0041C941.86 93.291 941.486 95.0394 940.74 96.2493C940.006 97.4593 938.927 98.0642 937.5 98.0642C936.087 98.0642 935.007 97.4593 934.26 96.2493C933.514 95.0394 933.14 93.291 933.14 91.0041C933.14 88.7306 933.514 86.9888 934.26 85.7789C935.007 84.569 936.087 83.964 937.5 83.964ZM934.56 91.0041C934.56 92.6262 934.707 93.896 935 94.8134L939.44 85.9783C938.973 85.3534 938.327 85.041 937.5 85.041C936.58 85.041 935.86 85.5329 935.34 86.5168C934.82 87.4874 934.56 88.9832 934.56 91.0041ZM937.5 96.9673C938.433 96.9673 939.16 96.482 939.68 95.5114C940.2 94.5275 940.46 93.0251 940.46 91.0041C940.46 89.289 940.293 87.9594 939.96 87.0154L935.52 95.9302C936 96.6216 936.66 96.9673 937.5 96.9673Z" fill="url(#paint83_linear_122_130)"/>
<path d="M938.7 119.601H941.64V120.658H934.02V119.601H937.42V108.392L934.18 110.327L933.62 109.429L937.62 106.956H938.7V119.601Z" fill="url(#paint84_linear_122_130)"/>
<path d="M938.7 142.393H941.64V143.45H934.02V142.393H937.42V131.185L934.18 133.12L933.62 132.222L937.62 129.749H938.7V142.393Z" fill="url(#paint85_linear_122_130)"/>
<path d="M937.5 152.342C938.927 152.342 940.006 152.947 940.74 154.157C941.486 155.354 941.86 157.096 941.86 159.383C941.86 161.669 941.486 163.418 940.74 164.628C940.006 165.838 938.927 166.443 937.5 166.443C936.087 166.443 935.007 165.838 934.26 164.628C933.514 163.418 933.14 161.669 933.14 159.383C933.14 157.109 933.514 155.367 934.26 154.157C935.007 152.947 936.087 152.342 937.5 152.342ZM934.56 159.383C934.56 161.005 934.707 162.274 935 163.192L939.44 154.357C938.973 153.732 938.327 153.419 937.5 153.419C936.58 153.419 935.86 153.911 935.34 154.895C934.82 155.866 934.56 157.362 934.56 159.383ZM937.5 165.346C938.433 165.346 939.16 164.86 939.68 163.89C940.2 162.906 940.46 161.404 940.46 159.383C940.46 157.667 940.293 156.338 939.96 155.394L935.52 164.309C936 165 936.66 165.346 937.5 165.346Z" fill="url(#paint86_linear_122_130)"/>
<path d="M938.7 187.979H941.64V189.036H934.02V187.979H937.42V176.771L934.18 178.705L933.62 177.808L937.62 175.335H938.7V187.979Z" fill="url(#paint87_linear_122_130)"/>
<path d="M937.5 197.928C938.927 197.928 940.006 198.533 940.74 199.743C941.486 200.94 941.86 202.681 941.86 204.968C941.86 207.255 941.486 209.003 940.74 210.213C940.006 211.423 938.927 212.028 937.5 212.028C936.087 212.028 935.007 211.423 934.26 210.213C933.514 209.003 933.14 207.255 933.14 204.968C933.14 202.695 933.514 200.953 934.26 199.743C935.007 198.533 936.087 197.928 937.5 197.928ZM934.56 204.968C934.56 206.59 934.707 207.86 935 208.777L939.44 199.942C938.973 199.317 938.327 199.005 937.5 199.005C936.58 199.005 935.86 199.497 935.34 200.481C934.82 201.451 934.56 202.947 934.56 204.968ZM937.5 210.931C938.433 210.931 939.16 210.446 939.68 209.475C940.2 208.492 940.46 206.989 940.46 204.968C940.46 203.253 940.293 201.923 939.96 200.979L935.52 209.894C936 210.586 936.66 210.931 937.5 210.931Z" fill="url(#paint88_linear_122_130)"/>
<path d="M974.64 -7.2072C976.067 -7.2072 977.147 -6.60224 977.88 -5.39232C978.627 -4.1957 979 -2.45395 979 -0.167072C979 2.11981 978.627 3.86821 977.88 5.07812C977.147 6.28804 976.067 6.893 974.64 6.893C973.227 6.893 972.147 6.28804 971.401 5.07812C970.654 3.86821 970.281 2.11981 970.281 -0.167072C970.281 -2.44065 970.654 -4.1824 971.401 -5.39232C972.147 -6.60224 973.227 -7.2072 974.64 -7.2072ZM971.7 -0.167072C971.7 1.45502 971.847 2.72477 972.14 3.64218L976.58 -5.19288C976.114 -5.81779 975.467 -6.13024 974.64 -6.13024C973.72 -6.13024 973 -5.63829 972.48 -4.6544C971.96 -3.68381 971.7 -2.18803 971.7 -0.167072ZM974.64 5.7961C975.574 5.7961 976.3 5.3108 976.82 4.34021C977.34 3.35632 977.6 1.85389 977.6 -0.167072C977.6 -1.88223 977.433 -3.21181 977.1 -4.15581L972.66 4.75902C973.14 5.4504 973.8 5.7961 974.64 5.7961Z" fill="url(#paint89_linear_122_130)"/>
<path d="M975.84 28.4293H978.78V29.4864H971.161V28.4293H974.56V17.221L971.321 19.1555L970.761 18.2581L974.76 15.785H975.84V28.4293Z" fill="url(#paint90_linear_122_130)"/>
<path d="M975.84 51.2221H978.78V52.2792H971.161V51.2221H974.56V40.0138L971.321 41.9483L970.761 41.0509L974.76 38.5778H975.84V51.2221Z" fill="url(#paint91_linear_122_130)"/>
<path d="M974.64 61.1712C976.067 61.1712 977.147 61.7762 977.88 62.9861C978.627 64.1827 979 65.9245 979 68.2113C979 70.4982 978.627 72.2466 977.88 73.4565C977.147 74.6664 976.067 75.2714 974.64 75.2714C973.227 75.2714 972.147 74.6664 971.401 73.4565C970.654 72.2466 970.281 70.4982 970.281 68.2113C970.281 65.9378 970.654 64.196 971.401 62.9861C972.147 61.7762 973.227 61.1712 974.64 61.1712ZM971.7 68.2113C971.7 69.8334 971.847 71.1032 972.14 72.0206L976.58 63.1855C976.114 62.5606 975.467 62.2482 974.64 62.2482C973.72 62.2482 973 62.7401 972.48 63.724C971.96 64.6946 971.7 66.1904 971.7 68.2113ZM974.64 74.1745C975.574 74.1745 976.3 73.6892 976.82 72.7186C977.34 71.7347 977.6 70.2323 977.6 68.2113C977.6 66.4962 977.433 65.1666 977.1 64.2226L972.66 73.1374C973.14 73.8288 973.8 74.1745 974.64 74.1745Z" fill="url(#paint92_linear_122_130)"/>
<path d="M974.64 83.964C976.067 83.964 977.147 84.569 977.88 85.7789C978.627 86.9755 979 88.7173 979 91.0041C979 93.291 978.627 95.0394 977.88 96.2493C977.147 97.4593 976.067 98.0642 974.64 98.0642C973.227 98.0642 972.147 97.4593 971.401 96.2493C970.654 95.0394 970.281 93.291 970.281 91.0041C970.281 88.7306 970.654 86.9888 971.401 85.7789C972.147 84.569 973.227 83.964 974.64 83.964ZM971.7 91.0041C971.7 92.6262 971.847 93.896 972.14 94.8134L976.58 85.9783C976.114 85.3534 975.467 85.041 974.64 85.041C973.72 85.041 973 85.5329 972.48 86.5168C971.96 87.4874 971.7 88.9832 971.7 91.0041ZM974.64 96.9673C975.574 96.9673 976.3 96.482 976.82 95.5114C977.34 94.5275 977.6 93.0251 977.6 91.0041C977.6 89.289 977.433 87.9594 977.1 87.0154L972.66 95.9302C973.14 96.6216 973.8 96.9673 974.64 96.9673Z" fill="url(#paint93_linear_122_130)"/>
</g>
</g>
<defs>
<filter id="filter0_f_122_130" x="-559.19" y="-716.19" width="2141.38" height="1500.38" filterUnits="userSpaceOnUse" color-interpolation-filters="sRGB">
<feFlood flood-opacity="0" result="BackgroundImageFix"/>
<feBlend mode="normal" in="SourceGraphic" in2="BackgroundImageFix" result="shape"/>
<feGaussianBlur stdDeviation="200.095" result="effect1_foregroundBlur_122_130"/>
</filter>
<linearGradient id="paint0_linear_122_130" x1="51.5" y1="270" x2="51.5" y2="581.381" gradientUnits="userSpaceOnUse">
<stop stop-color="#F7DD43"/>
<stop offset="1" stop-color="#F7DD43" stop-opacity="0"/>
</linearGradient>
<linearGradient id="paint1_linear_122_130" x1="51.5" y1="270" x2="51.5" y2="581.381" gradientUnits="userSpaceOnUse">
<stop stop-color="#F7DD43"/>
<stop offset="1" stop-color="#F7DD43" stop-opacity="0"/>
</linearGradient>
<linearGradient id="paint2_linear_122_130" x1="51.5" y1="270" x2="51.5" y2="581.381" gradientUnits="userSpaceOnUse">
<stop stop-color="#F7DD43"/>
<stop offset="1" stop-color="#F7DD43" stop-opacity="0"/>
</linearGradient>
<linearGradient id="paint3_linear_122_130" x1="51.5" y1="270" x2="51.5" y2="581.381" gradientUnits="userSpaceOnUse">
<stop stop-color="#F7DD43"/>
<stop offset="1" stop-color="#F7DD43" stop-opacity="0"/>
</linearGradient>
<linearGradient id="paint4_linear_122_130" x1="51.5" y1="270" x2="51.5" y2="581.381" gradientUnits="userSpaceOnUse">
<stop stop-color="#F7DD43"/>
<stop offset="1" stop-color="#F7DD43" stop-opacity="0"/>
</linearGradient>
<linearGradient id="paint5_linear_122_130" x1="51.5" y1="270" x2="51.5" y2="581.381" gradientUnits="userSpaceOnUse">
<stop stop-color="#F7DD43"/>
<stop offset="1" stop-color="#F7DD43" stop-opacity="0"/>
</linearGradient>
<linearGradient id="paint6_linear_122_130" x1="51.5" y1="270" x2="51.5" y2="581.381" gradientUnits="userSpaceOnUse">
<stop stop-color="#F7DD43"/>
<stop offset="1" stop-color="#F7DD43" stop-opacity="0"/>
</linearGradient>
<linearGradient id="paint7_linear_122_130" x1="51.5" y1="270" x2="51.5" y2="581.381" gradientUnits="userSpaceOnUse">
<stop stop-color="#F7DD43"/>
<stop offset="1" stop-color="#F7DD43" stop-opacity="0"/>
</linearGradient>
<linearGradient id="paint8_linear_122_130" x1="51.5" y1="270" x2="51.5" y2="581.381" gradientUnits="userSpaceOnUse">
<stop stop-color="#F7DD43"/>
<stop offset="1" stop-color="#F7DD43" stop-opacity="0"/>
</linearGradient>
<linearGradient id="paint9_linear_122_130" x1="51.5" y1="270" x2="51.5" y2="581.381" gradientUnits="userSpaceOnUse">
<stop stop-color="#F7DD43"/>
<stop offset="1" stop-color="#F7DD43" stop-opacity="0"/>
</linearGradient>
<linearGradient id="paint10_linear_122_130" x1="51.5" y1="270" x2="51.5" y2="581.381" gradientUnits="userSpaceOnUse">
<stop stop-color="#F7DD43"/>
<stop offset="1" stop-color="#F7DD43" stop-opacity="0"/>
</linearGradient>
<linearGradient id="paint11_linear_122_130" x1="51.5" y1="270" x2="51.5" y2="581.381" gradientUnits="userSpaceOnUse">
<stop stop-color="#F7DD43"/>
<stop offset="1" stop-color="#F7DD43" stop-opacity="0"/>
</linearGradient>
<linearGradient id="paint12_linear_122_130" x1="51.5" y1="270" x2="51.5" y2="581.381" gradientUnits="userSpaceOnUse">
<stop stop-color="#F7DD43"/>
<stop offset="1" stop-color="#F7DD43" stop-opacity="0"/>
</linearGradient>
<linearGradient id="paint13_linear_122_130" x1="51.5" y1="270" x2="51.5" y2="581.381" gradientUnits="userSpaceOnUse">
<stop stop-color="#F7DD43"/>
<stop offset="1" stop-color="#F7DD43" stop-opacity="0"/>
</linearGradient>
<linearGradient id="paint14_linear_122_130" x1="51.5" y1="270" x2="51.5" y2="581.381" gradientUnits="userSpaceOnUse">
<stop stop-color="#F7DD43"/>
<stop offset="1" stop-color="#F7DD43" stop-opacity="0"/>
</linearGradient>
<linearGradient id="paint15_linear_122_130" x1="51.5" y1="270" x2="51.5" y2="581.381" gradientUnits="userSpaceOnUse">
<stop stop-color="#F7DD43"/>
<stop offset="1" stop-color="#F7DD43" stop-opacity="0"/>
</linearGradient>
<linearGradient id="paint16_linear_122_130" x1="51.5" y1="270" x2="51.5" y2="581.381" gradientUnits="userSpaceOnUse">
<stop stop-color="#F7DD43"/>
<stop offset="1" stop-color="#F7DD43" stop-opacity="0"/>
</linearGradient>
<linearGradient id="paint17_linear_122_130" x1="51.5" y1="270" x2="51.5" y2="581.381" gradientUnits="userSpaceOnUse">
<stop stop-color="#F7DD43"/>
<stop offset="1" stop-color="#F7DD43" stop-opacity="0"/>
</linearGradient>
<linearGradient id="paint18_linear_122_130" x1="51.5" y1="270" x2="51.5" y2="581.381" gradientUnits="userSpaceOnUse">
<stop stop-color="#F7DD43"/>
<stop offset="1" stop-color="#F7DD43" stop-opacity="0"/>
</linearGradient>
<linearGradient id="paint19_linear_122_130" x1="51.5" y1="270" x2="51.5" y2="581.381" gradientUnits="userSpaceOnUse">
<stop stop-color="#F7DD43"/>
<stop offset="1" stop-color="#F7DD43" stop-opacity="0"/>
</linearGradient>
<linearGradient id="paint20_linear_122_130" x1="51.5" y1="270" x2="51.5" y2="581.381" gradientUnits="userSpaceOnUse">
<stop stop-color="#F7DD43"/>
<stop offset="1" stop-color="#F7DD43" stop-opacity="0"/>
</linearGradient>
<linearGradient id="paint21_linear_122_130" x1="51.5" y1="270" x2="51.5" y2="581.381" gradientUnits="userSpaceOnUse">
<stop stop-color="#F7DD43"/>
<stop offset="1" stop-color="#F7DD43" stop-opacity="0"/>
</linearGradient>
<linearGradient id="paint22_linear_122_130" x1="51.5" y1="270" x2="51.5" y2="581.381" gradientUnits="userSpaceOnUse">
<stop stop-color="#F7DD43"/>
<stop offset="1" stop-color="#F7DD43" stop-opacity="0"/>
</linearGradient>
<linearGradient id="paint23_linear_122_130" x1="51.5" y1="270" x2="51.5" y2="581.381" gradientUnits="userSpaceOnUse">
<stop stop-color="#F7DD43"/>
<stop offset="1" stop-color="#F7DD43" stop-opacity="0"/>
</linearGradient>
<linearGradient id="paint24_linear_122_130" x1="51.5" y1="270" x2="51.5" y2="581.381" gradientUnits="userSpaceOnUse">
<stop stop-color="#F7DD43"/>
<stop offset="1" stop-color="#F7DD43" stop-opacity="0"/>
</linearGradient>
<linearGradient id="paint25_linear_122_130" x1="51.5" y1="270" x2="51.5" y2="581.381" gradientUnits="userSpaceOnUse">
<stop stop-color="#F7DD43"/>
<stop offset="1" stop-color="#F7DD43" stop-opacity="0"/>
</linearGradient>
<linearGradient id="paint26_linear_122_130" x1="51.5" y1="270" x2="51.5" y2="581.381" gradientUnits="userSpaceOnUse">
<stop stop-color="#F7DD43"/>
<stop offset="1" stop-color="#F7DD43" stop-opacity="0"/>
</linearGradient>
<linearGradient id="paint27_linear_122_130" x1="51.5" y1="270" x2="51.5" y2="581.381" gradientUnits="userSpaceOnUse">
<stop stop-color="#F7DD43"/>
<stop offset="1" stop-color="#F7DD43" stop-opacity="0"/>
</linearGradient>
<linearGradient id="paint28_linear_122_130" x1="51.5" y1="270" x2="51.5" y2="581.381" gradientUnits="userSpaceOnUse">
<stop stop-color="#F7DD43"/>
<stop offset="1" stop-color="#F7DD43" stop-opacity="0"/>
</linearGradient>
<linearGradient id="paint29_linear_122_130" x1="51.5" y1="270" x2="51.5" y2="581.381" gradientUnits="userSpaceOnUse">
<stop stop-color="#F7DD43"/>
<stop offset="1" stop-color="#F7DD43" stop-opacity="0"/>
</linearGradient>
<linearGradient id="paint30_linear_122_130" x1="51.5" y1="270" x2="51.5" y2="581.381" gradientUnits="userSpaceOnUse">
<stop stop-color="#F7DD43"/>
<stop offset="1" stop-color="#F7DD43" stop-opacity="0"/>
</linearGradient>
<linearGradient id="paint31_linear_122_130" x1="51.5" y1="270" x2="51.5" y2="581.381" gradientUnits="userSpaceOnUse">
<stop stop-color="#F7DD43"/>
<stop offset="1" stop-color="#F7DD43" stop-opacity="0"/>
</linearGradient>
<linearGradient id="paint32_linear_122_130" x1="51.5" y1="270" x2="51.5" y2="581.381" gradientUnits="userSpaceOnUse">
<stop stop-color="#F7DD43"/>
<stop offset="1" stop-color="#F7DD43" stop-opacity="0"/>
</linearGradient>
<linearGradient id="paint33_linear_122_130" x1="51.5" y1="270" x2="51.5" y2="581.381" gradientUnits="userSpaceOnUse">
<stop stop-color="#F7DD43"/>
<stop offset="1" stop-color="#F7DD43" stop-opacity="0"/>
</linearGradient>
<linearGradient id="paint34_linear_122_130" x1="51.5" y1="270" x2="51.5" y2="581.381" gradientUnits="userSpaceOnUse">
<stop stop-color="#F7DD43"/>
<stop offset="1" stop-color="#F7DD43" stop-opacity="0"/>
</linearGradient>
<linearGradient id="paint35_linear_122_130" x1="51.5" y1="270" x2="51.5" y2="581.381" gradientUnits="userSpaceOnUse">
<stop stop-color="#F7DD43"/>
<stop offset="1" stop-color="#F7DD43" stop-opacity="0"/>
</linearGradient>
<linearGradient id="paint36_linear_122_130" x1="51.5" y1="270" x2="51.5" y2="581.381" gradientUnits="userSpaceOnUse">
<stop stop-color="#F7DD43"/>
<stop offset="1" stop-color="#F7DD43" stop-opacity="0"/>
</linearGradient>
<linearGradient id="paint37_linear_122_130" x1="51.5" y1="270" x2="51.5" y2="581.381" gradientUnits="userSpaceOnUse">
<stop stop-color="#F7DD43"/>
<stop offset="1" stop-color="#F7DD43" stop-opacity="0"/>
</linearGradient>
<linearGradient id="paint38_linear_122_130" x1="51.5" y1="270" x2="51.5" y2="581.381" gradientUnits="userSpaceOnUse">
<stop stop-color="#F7DD43"/>
<stop offset="1" stop-color="#F7DD43" stop-opacity="0"/>
</linearGradient>
<linearGradient id="paint39_linear_122_130" x1="51.5" y1="270" x2="51.5" y2="581.381" gradientUnits="userSpaceOnUse">
<stop stop-color="#F7DD43"/>
<stop offset="1" stop-color="#F7DD43" stop-opacity="0"/>
</linearGradient>
<linearGradient id="paint40_linear_122_130" x1="51.5" y1="270" x2="51.5" y2="581.381" gradientUnits="userSpaceOnUse">
<stop stop-color="#F7DD43"/>
<stop offset="1" stop-color="#F7DD43" stop-opacity="0"/>
</linearGradient>
<linearGradient id="paint41_linear_122_130" x1="51.5" y1="270" x2="51.5" y2="581.381" gradientUnits="userSpaceOnUse">
<stop stop-color="#F7DD43"/>
<stop offset="1" stop-color="#F7DD43" stop-opacity="0"/>
</linearGradient>
<linearGradient id="paint42_linear_122_130" x1="51.5" y1="270" x2="51.5" y2="581.381" gradientUnits="userSpaceOnUse">
<stop stop-color="#F7DD43"/>
<stop offset="1" stop-color="#F7DD43" stop-opacity="0"/>
</linearGradient>
<linearGradient id="paint43_linear_122_130" x1="51.5" y1="270" x2="51.5" y2="581.381" gradientUnits="userSpaceOnUse">
<stop stop-color="#F7DD43"/>
<stop offset="1" stop-color="#F7DD43" stop-opacity="0"/>
</linearGradient>
<linearGradient id="paint44_linear_122_130" x1="51.5" y1="270" x2="51.5" y2="581.381" gradientUnits="userSpaceOnUse">
<stop stop-color="#F7DD43"/>
<stop offset="1" stop-color="#F7DD43" stop-opacity="0"/>
</linearGradient>
<linearGradient id="paint45_linear_122_130" x1="51.5" y1="270" x2="51.5" y2="581.381" gradientUnits="userSpaceOnUse">
<stop stop-color="#F7DD43"/>
<stop offset="1" stop-color="#F7DD43" stop-opacity="0"/>
</linearGradient>
<linearGradient id="paint46_linear_122_130" x1="51.5" y1="270" x2="51.5" y2="581.381" gradientUnits="userSpaceOnUse">
<stop stop-color="#F7DD43"/>
<stop offset="1" stop-color="#F7DD43" stop-opacity="0"/>
</linearGradient>
<linearGradient id="paint47_linear_122_130" x1="937.5" y1="-30" x2="937.5" y2="268.818" gradientUnits="userSpaceOnUse">
<stop stop-color="#F7DD43"/>
<stop offset="1" stop-color="#F7DD43" stop-opacity="0"/>
</linearGradient>
<linearGradient id="paint48_linear_122_130" x1="937.5" y1="-30" x2="937.5" y2="268.818" gradientUnits="userSpaceOnUse">
<stop stop-color="#F7DD43"/>
<stop offset="1" stop-color="#F7DD43" stop-opacity="0"/>
</linearGradient>
<linearGradient id="paint49_linear_122_130" x1="937.5" y1="-30" x2="937.5" y2="268.818" gradientUnits="userSpaceOnUse">
<stop stop-color="#F7DD43"/>
<stop offset="1" stop-color="#F7DD43" stop-opacity="0"/>
</linearGradient>
<linearGradient id="paint50_linear_122_130" x1="937.5" y1="-30" x2="937.5" y2="268.818" gradientUnits="userSpaceOnUse">
<stop stop-color="#F7DD43"/>
<stop offset="1" stop-color="#F7DD43" stop-opacity="0"/>
</linearGradient>
<linearGradient id="paint51_linear_122_130" x1="937.5" y1="-30" x2="937.5" y2="268.818" gradientUnits="userSpaceOnUse">
<stop stop-color="#F7DD43"/>
<stop offset="1" stop-color="#F7DD43" stop-opacity="0"/>
</linearGradient>
<linearGradient id="paint52_linear_122_130" x1="937.5" y1="-30" x2="937.5" y2="268.818" gradientUnits="userSpaceOnUse">
<stop stop-color="#F7DD43"/>
<stop offset="1" stop-color="#F7DD43" stop-opacity="0"/>
</linearGradient>
<linearGradient id="paint53_linear_122_130" x1="937.5" y1="-30" x2="937.5" y2="268.818" gradientUnits="userSpaceOnUse">
<stop stop-color="#F7DD43"/>
<stop offset="1" stop-color="#F7DD43" stop-opacity="0"/>
</linearGradient>
<linearGradient id="paint54_linear_122_130" x1="937.5" y1="-30" x2="937.5" y2="268.818" gradientUnits="userSpaceOnUse">
<stop stop-color="#F7DD43"/>
<stop offset="1" stop-color="#F7DD43" stop-opacity="0"/>
</linearGradient>
<linearGradient id="paint55_linear_122_130" x1="937.5" y1="-30" x2="937.5" y2="268.818" gradientUnits="userSpaceOnUse">
<stop stop-color="#F7DD43"/>
<stop offset="1" stop-color="#F7DD43" stop-opacity="0"/>
</linearGradient>
<linearGradient id="paint56_linear_122_130" x1="937.5" y1="-30" x2="937.5" y2="268.818" gradientUnits="userSpaceOnUse">
<stop stop-color="#F7DD43"/>
<stop offset="1" stop-color="#F7DD43" stop-opacity="0"/>
</linearGradient>
<linearGradient id="paint57_linear_122_130" x1="937.5" y1="-30" x2="937.5" y2="268.818" gradientUnits="userSpaceOnUse">
<stop stop-color="#F7DD43"/>
<stop offset="1" stop-color="#F7DD43" stop-opacity="0"/>
</linearGradient>
<linearGradient id="paint58_linear_122_130" x1="937.5" y1="-30" x2="937.5" y2="268.818" gradientUnits="userSpaceOnUse">
<stop stop-color="#F7DD43"/>
<stop offset="1" stop-color="#F7DD43" stop-opacity="0"/>
</linearGradient>
<linearGradient id="paint59_linear_122_130" x1="937.5" y1="-30" x2="937.5" y2="268.818" gradientUnits="userSpaceOnUse">
<stop stop-color="#F7DD43"/>
<stop offset="1" stop-color="#F7DD43" stop-opacity="0"/>
</linearGradient>
<linearGradient id="paint60_linear_122_130" x1="937.5" y1="-30" x2="937.5" y2="268.818" gradientUnits="userSpaceOnUse">
<stop stop-color="#F7DD43"/>
<stop offset="1" stop-color="#F7DD43" stop-opacity="0"/>
</linearGradient>
<linearGradient id="paint61_linear_122_130" x1="937.5" y1="-30" x2="937.5" y2="268.818" gradientUnits="userSpaceOnUse">
<stop stop-color="#F7DD43"/>
<stop offset="1" stop-color="#F7DD43" stop-opacity="0"/>
</linearGradient>
<linearGradient id="paint62_linear_122_130" x1="937.5" y1="-30" x2="937.5" y2="268.818" gradientUnits="userSpaceOnUse">
<stop stop-color="#F7DD43"/>
<stop offset="1" stop-color="#F7DD43" stop-opacity="0"/>
</linearGradient>
<linearGradient id="paint63_linear_122_130" x1="937.5" y1="-30" x2="937.5" y2="268.818" gradientUnits="userSpaceOnUse">
<stop stop-color="#F7DD43"/>
<stop offset="1" stop-color="#F7DD43" stop-opacity="0"/>
</linearGradient>
<linearGradient id="paint64_linear_122_130" x1="937.5" y1="-30" x2="937.5" y2="268.818" gradientUnits="userSpaceOnUse">
<stop stop-color="#F7DD43"/>
<stop offset="1" stop-color="#F7DD43" stop-opacity="0"/>
</linearGradient>
<linearGradient id="paint65_linear_122_130" x1="937.5" y1="-30" x2="937.5" y2="268.818" gradientUnits="userSpaceOnUse">
<stop stop-color="#F7DD43"/>
<stop offset="1" stop-color="#F7DD43" stop-opacity="0"/>
</linearGradient>
<linearGradient id="paint66_linear_122_130" x1="937.5" y1="-30" x2="937.5" y2="268.818" gradientUnits="userSpaceOnUse">
<stop stop-color="#F7DD43"/>
<stop offset="1" stop-color="#F7DD43" stop-opacity="0"/>
</linearGradient>
<linearGradient id="paint67_linear_122_130" x1="937.5" y1="-30" x2="937.5" y2="268.818" gradientUnits="userSpaceOnUse">
<stop stop-color="#F7DD43"/>
<stop offset="1" stop-color="#F7DD43" stop-opacity="0"/>
</linearGradient>
<linearGradient id="paint68_linear_122_130" x1="937.5" y1="-30" x2="937.5" y2="268.818" gradientUnits="userSpaceOnUse">
<stop stop-color="#F7DD43"/>
<stop offset="1" stop-color="#F7DD43" stop-opacity="0"/>
</linearGradient>
<linearGradient id="paint69_linear_122_130" x1="937.5" y1="-30" x2="937.5" y2="268.818" gradientUnits="userSpaceOnUse">
<stop stop-color="#F7DD43"/>
<stop offset="1" stop-color="#F7DD43" stop-opacity="0"/>
</linearGradient>
<linearGradient id="paint70_linear_122_130" x1="937.5" y1="-30" x2="937.5" y2="268.818" gradientUnits="userSpaceOnUse">
<stop stop-color="#F7DD43"/>
<stop offset="1" stop-color="#F7DD43" stop-opacity="0"/>
</linearGradient>
<linearGradient id="paint71_linear_122_130" x1="937.5" y1="-30" x2="937.5" y2="268.818" gradientUnits="userSpaceOnUse">
<stop stop-color="#F7DD43"/>
<stop offset="1" stop-color="#F7DD43" stop-opacity="0"/>
</linearGradient>
<linearGradient id="paint72_linear_122_130" x1="937.5" y1="-30" x2="937.5" y2="268.818" gradientUnits="userSpaceOnUse">
<stop stop-color="#F7DD43"/>
<stop offset="1" stop-color="#F7DD43" stop-opacity="0"/>
</linearGradient>
<linearGradient id="paint73_linear_122_130" x1="937.5" y1="-30" x2="937.5" y2="268.818" gradientUnits="userSpaceOnUse">
<stop stop-color="#F7DD43"/>
<stop offset="1" stop-color="#F7DD43" stop-opacity="0"/>
</linearGradient>
<linearGradient id="paint74_linear_122_130" x1="937.5" y1="-30" x2="937.5" y2="268.818" gradientUnits="userSpaceOnUse">
<stop stop-color="#F7DD43"/>
<stop offset="1" stop-color="#F7DD43" stop-opacity="0"/>
</linearGradient>
<linearGradient id="paint75_linear_122_130" x1="937.5" y1="-30" x2="937.5" y2="268.818" gradientUnits="userSpaceOnUse">
<stop stop-color="#F7DD43"/>
<stop offset="1" stop-color="#F7DD43" stop-opacity="0"/>
</linearGradient>
<linearGradient id="paint76_linear_122_130" x1="937.5" y1="-30" x2="937.5" y2="268.818" gradientUnits="userSpaceOnUse">
<stop stop-color="#F7DD43"/>
<stop offset="1" stop-color="#F7DD43" stop-opacity="0"/>
</linearGradient>
<linearGradient id="paint77_linear_122_130" x1="937.5" y1="-30" x2="937.5" y2="268.818" gradientUnits="userSpaceOnUse">
<stop stop-color="#F7DD43"/>
<stop offset="1" stop-color="#F7DD43" stop-opacity="0"/>
</linearGradient>
<linearGradient id="paint78_linear_122_130" x1="937.5" y1="-30" x2="937.5" y2="268.818" gradientUnits="userSpaceOnUse">
<stop stop-color="#F7DD43"/>
<stop offset="1" stop-color="#F7DD43" stop-opacity="0"/>
</linearGradient>
<linearGradient id="paint79_linear_122_130" x1="937.5" y1="-30" x2="937.5" y2="268.818" gradientUnits="userSpaceOnUse">
<stop stop-color="#F7DD43"/>
<stop offset="1" stop-color="#F7DD43" stop-opacity="0"/>
</linearGradient>
<linearGradient id="paint80_linear_122_130" x1="937.5" y1="-30" x2="937.5" y2="268.818" gradientUnits="userSpaceOnUse">
<stop stop-color="#F7DD43"/>
<stop offset="1" stop-color="#F7DD43" stop-opacity="0"/>
</linearGradient>
<linearGradient id="paint81_linear_122_130" x1="937.5" y1="-30" x2="937.5" y2="268.818" gradientUnits="userSpaceOnUse">
<stop stop-color="#F7DD43"/>
<stop offset="1" stop-color="#F7DD43" stop-opacity="0"/>
</linearGradient>
<linearGradient id="paint82_linear_122_130" x1="937.5" y1="-30" x2="937.5" y2="268.818" gradientUnits="userSpaceOnUse">
<stop stop-color="#F7DD43"/>
<stop offset="1" stop-color="#F7DD43" stop-opacity="0"/>
</linearGradient>
<linearGradient id="paint83_linear_122_130" x1="937.5" y1="-30" x2="937.5" y2="268.818" gradientUnits="userSpaceOnUse">
<stop stop-color="#F7DD43"/>
<stop offset="1" stop-color="#F7DD43" stop-opacity="0"/>
</linearGradient>
<linearGradient id="paint84_linear_122_130" x1="937.5" y1="-30" x2="937.5" y2="268.818" gradientUnits="userSpaceOnUse">
<stop stop-color="#F7DD43"/>
<stop offset="1" stop-color="#F7DD43" stop-opacity="0"/>
</linearGradient>
<linearGradient id="paint85_linear_122_130" x1="937.5" y1="-30" x2="937.5" y2="268.818" gradientUnits="userSpaceOnUse">
<stop stop-color="#F7DD43"/>
<stop offset="1" stop-color="#F7DD43" stop-opacity="0"/>
</linearGradient>
<linearGradient id="paint86_linear_122_130" x1="937.5" y1="-30" x2="937.5" y2="268.818" gradientUnits="userSpaceOnUse">
<stop stop-color="#F7DD43"/>
<stop offset="1" stop-color="#F7DD43" stop-opacity="0"/>
</linearGradient>
<linearGradient id="paint87_linear_122_130" x1="937.5" y1="-30" x2="937.5" y2="268.818" gradientUnits="userSpaceOnUse">
<stop stop-color="#F7DD43"/>
<stop offset="1" stop-color="#F7DD43" stop-opacity="0"/>
</linearGradient>
<linearGradient id="paint88_linear_122_130" x1="937.5" y1="-30" x2="937.5" y2="268.818" gradientUnits="userSpaceOnUse">
<stop stop-color="#F7DD43"/>
<stop offset="1" stop-color="#F7DD43" stop-opacity="0"/>
</linearGradient>
<linearGradient id="paint89_linear_122_130" x1="937.5" y1="-30" x2="937.5" y2="268.818" gradientUnits="userSpaceOnUse">
<stop stop-color="#F7DD43"/>
<stop offset="1" stop-color="#F7DD43" stop-opacity="0"/>
</linearGradient>
<linearGradient id="paint90_linear_122_130" x1="937.5" y1="-30" x2="937.5" y2="268.818" gradientUnits="userSpaceOnUse">
<stop stop-color="#F7DD43"/>
<stop offset="1" stop-color="#F7DD43" stop-opacity="0"/>
</linearGradient>
<linearGradient id="paint91_linear_122_130" x1="937.5" y1="-30" x2="937.5" y2="268.818" gradientUnits="userSpaceOnUse">
<stop stop-color="#F7DD43"/>
<stop offset="1" stop-color="#F7DD43" stop-opacity="0"/>
</linearGradient>
<linearGradient id="paint92_linear_122_130" x1="937.5" y1="-30" x2="937.5" y2="268.818" gradientUnits="userSpaceOnUse">
<stop stop-color="#F7DD43"/>
<stop offset="1" stop-color="#F7DD43" stop-opacity="0"/>
</linearGradient>
<linearGradient id="paint93_linear_122_130" x1="937.5" y1="-30" x2="937.5" y2="268.818" gradientUnits="userSpaceOnUse">
<stop stop-color="#F7DD43"/>
<stop offset="1" stop-color="#F7DD43" stop-opacity="0"/>
</linearGradient>
<clipPath id="clip0_122_130">
<rect width="1024" height="753" fill="white"/>
</clipPath>
</defs>
</svg>
